<svg xmlns="http://www.w3.org/2000/svg" width="512" height="512" viewBox="0 0 512.004 512.004" style="enable-background:new 0 0 512 512" xml:space="preserve">
    <path d="M495.622 447.14H44.76l86.432-149.712c43.001 29.76 72.984 75.063 83.199 126.54 1.544 7.801 8.395 13.188 16.054 13.188 1.056 0 2.13-.106 3.204-.311 8.875-1.766 14.643-10.383 12.877-19.258-12.063-60.728-47.763-114.051-98.92-148.592L270.186 56.67c4.526-7.828 1.837-17.847-5.999-22.373-7.836-4.526-17.847-1.837-22.373 5.999L2.196 455.331a16.371 16.371 0 0 0 0 16.383 16.416 16.416 0 0 0 14.191 8.191h479.235c9.043 0 16.383-7.331 16.383-16.383-.001-9.052-7.331-16.382-16.383-16.382z" fill="#1b1b1b" data-original="#000000" xmlns="http://www.w3.org/2000/svg"/>
</svg>