<svg xmlns="http://www.w3.org/2000/svg" width="512" height="512" viewBox="0 0 128 128" style="enable-background:new 0 0 512 512" xml:space="preserve"><path xmlns="http://www.w3.org/2000/svg" d="M116.5 17.8v28.5c0 1.4-1.1 2.5-2.5 2.5s-2.5-1.1-2.5-2.5V20L75.7 55.9c-.5.5-1.1.7-1.8.7s-1.3-.2-1.8-.7c-1-1-1-2.6 0-3.5L108 16.5H81.7c-1.4 0-2.5-1.1-2.5-2.5s1.1-2.5 2.5-2.5h28.5c3.5 0 6.3 2.8 6.3 6.3zM52.3 72.1 16.5 108V81.7c0-1.4-1.1-2.5-2.5-2.5s-2.5 1.1-2.5 2.5v28.5c0 3.5 2.8 6.3 6.3 6.3h28.5c1.4 0 2.5-1.1 2.5-2.5s-1.1-2.5-2.5-2.5H20l35.8-35.8c1-1 1-2.6 0-3.5-.9-1-2.5-1-3.5-.1z" fill="#1b1b1b" data-original="#000000"/></svg>