<svg xmlns="http://www.w3.org/2000/svg" width="512" height="512" style="enable-background:new 0 0 512 512" xml:space="preserve">
    <path xmlns="http://www.w3.org/2000/svg" d="M258.164 512C159.922 512 80 431.633 80 332.848c0-43.051 14.664-72.32 31.648-106.211 9.426-18.82 19.176-38.278 28.18-63.106l9.367-25.832c13.813 3.383 9.133 2.239 22.942 5.621l-3.633 27.239c-2.973 22.257 1.09 47.504 11.14 69.261 4.262 9.23 9.407 17.422 15.118 24.23-1.98-36.14 1.722-70.976 11.074-103.937 9.805-34.55 25.535-66.406 46.758-94.687 26.414-35.192 56.75-58.176 70.816-60.067L363.277 0 336.45 29.977c-12.187 13.613-18.898 31.187-18.898 49.484 0 35.367 21.695 60.465 46.812 89.527 16.106 18.63 34.356 39.746 48.18 65.688 16.004 30.031 23.781 62.14 23.781 98.172 0 98.785-79.922 179.152-178.16 179.152zm-114.27-283.5c-1.937 3.926-3.843 7.73-5.699 11.438-15.925 31.78-28.5 56.882-28.5 92.91 0 82.41 66.602 149.457 148.47 149.457 81.862 0 148.468-67.047 148.468-149.457 0-69.551-32.91-107.621-64.735-144.442-27.793-32.152-54.043-62.523-54.043-108.945 0-3.703.196-7.383.586-11.031-8.375 9.476-17.168 20.965-25.48 34.523-23.465 38.281-48.637 102.52-35.274 191.184l3.907 25.945-24.254-10.008c-22.274-9.195-41.684-29.722-54.656-57.804a162.35 162.35 0 0 1-8.79-23.77zm0 0" fill="#1b1b1b" data-original="#000000"/>
</svg>